<svg width="182" height="43" viewBox="0 0 182 43" fill="none" xmlns="http://www.w3.org/2000/svg">
<path d="M39.6016 15H36.7988V0.996094H39.6016V15ZM55.4102 15H52.4121L47.0117 5.78125V15H44.209V0.996094H47.207L52.6074 10.2246V0.996094H55.4102V15ZM65.8965 15H63.1035V3.79883H58.8945V0.996094H70.0957V3.79883H65.8965V15ZM83.1797 15H73.5801V0.996094H83.1797V3.79883H76.3828V6.60156H80.9824V9.4043H76.3828V12.1973H83.1797V15ZM89.9453 3.79883V9.4043H92.748C93.1322 9.4043 93.4935 9.33268 93.832 9.18945C94.1706 9.03971 94.4668 8.83789 94.7207 8.58398C94.9746 8.33008 95.1732 8.03385 95.3164 7.69531C95.4661 7.35026 95.541 6.98568 95.541 6.60156C95.541 6.21745 95.4661 5.85612 95.3164 5.51758C95.1732 5.17253 94.9746 4.87305 94.7207 4.61914C94.4668 4.36523 94.1706 4.16667 93.832 4.02344C93.4935 3.8737 93.1322 3.79883 92.748 3.79883H89.9453ZM89.9453 15H87.1426V0.996094H92.748C93.2624 0.996094 93.7572 1.06445 94.2324 1.20117C94.7077 1.33138 95.1504 1.52018 95.5605 1.76758C95.9772 2.00846 96.3548 2.30143 96.6934 2.64648C97.0384 2.98503 97.3314 3.36263 97.5723 3.7793C97.8197 4.19596 98.0085 4.64193 98.1387 5.11719C98.2754 5.59245 98.3438 6.08724 98.3438 6.60156C98.3438 7.08333 98.2819 7.55208 98.1582 8.00781C98.041 8.46354 97.8685 8.89648 97.6406 9.30664C97.4193 9.7168 97.1458 10.0944 96.8203 10.4395C96.4948 10.7845 96.1302 11.084 95.7266 11.3379L97.2793 15H94.3008L93.0801 12.1777L89.9453 12.1973V15ZM112.756 0.996094L108.156 15H105.354L100.773 0.996094H103.957L106.75 10.3418L109.553 0.996094H112.756ZM124.033 9.4043V6.60156C124.033 6.21745 123.958 5.85612 123.809 5.51758C123.665 5.17253 123.467 4.87305 123.213 4.61914C122.959 4.36523 122.66 4.16667 122.314 4.02344C121.976 3.8737 121.615 3.79883 121.23 3.79883C120.846 3.79883 120.482 3.8737 120.137 4.02344C119.798 4.16667 119.502 4.36523 119.248 4.61914C118.994 4.87305 118.792 5.17253 118.643 5.51758C118.499 5.85612 118.428 6.21745 118.428 6.60156V9.4043H124.033ZM126.836 15H124.033V12.1973H118.428V15H115.635V6.60156C115.635 5.82682 115.781 5.10091 116.074 4.42383C116.367 3.74023 116.764 3.14453 117.266 2.63672C117.773 2.12891 118.366 1.72852 119.043 1.43555C119.727 1.14258 120.456 0.996094 121.23 0.996094C122.005 0.996094 122.731 1.14258 123.408 1.43555C124.092 1.72852 124.688 2.12891 125.195 2.63672C125.703 3.14453 126.104 3.74023 126.396 4.42383C126.689 5.10091 126.836 5.82682 126.836 6.60156V15ZM141.072 15H131.268V0.996094H134.07V12.1973H141.072V15Z" fill="white"/>
<path d="M0.659515 30.2H5.99352V31.236H1.82152V34.582H5.71352V35.618H1.82152V40H0.659515V30.2ZM8.78794 36.5C8.78794 35.3147 9.04927 34.4093 9.57194 33.784C10.1039 33.1493 10.8646 32.832 11.8539 32.832C12.3766 32.832 12.8293 32.9207 13.2119 33.098C13.6039 33.266 13.9259 33.5133 14.1779 33.84C14.4299 34.1573 14.6166 34.5447 14.738 35.002C14.8593 35.45 14.9199 35.9493 14.9199 36.5C14.9199 37.6853 14.6539 38.5953 14.1219 39.23C13.5993 39.8553 12.8433 40.168 11.8539 40.168C11.3313 40.168 10.8739 40.084 10.4819 39.916C10.0993 39.7387 9.78194 39.4913 9.52994 39.174C9.27794 38.8473 9.09127 38.46 8.96994 38.012C8.84861 37.5547 8.78794 37.0507 8.78794 36.5ZM9.94994 36.5C9.94994 36.8547 9.98261 37.1953 10.0479 37.522C10.1226 37.8487 10.2346 38.1333 10.3839 38.376C10.5333 38.6187 10.7293 38.8147 10.9719 38.964C11.2146 39.1133 11.5086 39.188 11.8539 39.188C13.1233 39.1973 13.7579 38.3013 13.7579 36.5C13.7579 36.136 13.7206 35.7907 13.646 35.464C13.5806 35.1373 13.4733 34.8527 13.324 34.61C13.1746 34.3673 12.9786 34.176 12.736 34.036C12.4933 33.8867 12.1993 33.812 11.8539 33.812C10.5846 33.8027 9.94994 34.6987 9.94994 36.5ZM21.3898 34.078C21.1098 33.9847 20.8438 33.938 20.5918 33.938C20.1905 33.938 19.8731 34.05 19.6398 34.274C19.4065 34.4887 19.2618 34.764 19.2058 35.1V40H18.0858V33H18.8698L19.0798 33.854H19.1358C19.3131 33.5367 19.5231 33.294 19.7658 33.126C20.0178 32.9487 20.3351 32.86 20.7178 32.86C20.9885 32.86 21.2918 32.9067 21.6278 33L21.3898 34.078ZM29.264 33.518C29.6187 33.3033 30.0294 33.1447 30.496 33.042C30.972 32.9393 31.4667 32.888 31.98 32.888C32.4654 32.888 32.8527 32.9533 33.142 33.084C33.4407 33.2147 33.6647 33.3873 33.814 33.602C33.9727 33.8073 34.0754 34.036 34.122 34.288C34.178 34.54 34.206 34.792 34.206 35.044C34.206 35.604 34.192 36.15 34.164 36.682C34.136 37.214 34.122 37.718 34.122 38.194C34.122 38.5393 34.136 38.866 34.164 39.174C34.192 39.482 34.2434 39.7667 34.318 40.028H33.492L33.198 39.048H33.128C33.044 39.1787 32.9367 39.3093 32.806 39.44C32.6847 39.5613 32.5354 39.6733 32.358 39.776C32.1807 39.8693 31.9754 39.9487 31.742 40.014C31.5087 40.0793 31.2427 40.112 30.944 40.112C30.6454 40.112 30.3654 40.0653 30.104 39.972C29.852 39.8787 29.6327 39.748 29.446 39.58C29.2594 39.4027 29.11 39.1927 28.998 38.95C28.8954 38.7073 28.844 38.432 28.844 38.124C28.844 37.7133 28.928 37.3727 29.096 37.102C29.264 36.822 29.4974 36.6027 29.796 36.444C30.104 36.276 30.468 36.1593 30.888 36.094C31.3174 36.0193 31.7887 35.982 32.302 35.982C32.4327 35.982 32.5587 35.982 32.68 35.982C32.8107 35.982 32.9414 35.9913 33.072 36.01C33.1 35.73 33.114 35.478 33.114 35.254C33.114 34.7407 33.0114 34.3813 32.806 34.176C32.6007 33.9707 32.2274 33.868 31.686 33.868C31.5274 33.868 31.3547 33.882 31.168 33.91C30.9907 33.9287 30.804 33.9613 30.608 34.008C30.4214 34.0453 30.2394 34.0967 30.062 34.162C29.894 34.218 29.7447 34.2833 29.614 34.358L29.264 33.518ZM31.252 39.132C31.5134 39.132 31.7467 39.0993 31.952 39.034C32.1574 38.9593 32.3347 38.8707 32.484 38.768C32.6334 38.656 32.7547 38.5347 32.848 38.404C32.9507 38.2733 33.0254 38.1473 33.072 38.026V36.864C32.9414 36.8547 32.806 36.85 32.666 36.85C32.5354 36.8407 32.4047 36.836 32.274 36.836C31.9847 36.836 31.7 36.8547 31.42 36.892C31.1494 36.92 30.9067 36.9807 30.692 37.074C30.4867 37.158 30.3187 37.2793 30.188 37.438C30.0667 37.5873 30.006 37.7787 30.006 38.012C30.006 38.3387 30.1227 38.6093 30.356 38.824C30.5894 39.0293 30.888 39.132 31.252 39.132ZM38.9674 38.278C38.9674 38.6047 39.0234 38.838 39.1354 38.978C39.2474 39.118 39.406 39.188 39.6114 39.188C39.7327 39.188 39.8634 39.1787 40.0034 39.16C40.1434 39.1413 40.302 39.0993 40.4794 39.034L40.6054 39.916C40.456 39.9907 40.246 40.0513 39.9754 40.098C39.714 40.1447 39.4854 40.168 39.2894 40.168C38.8694 40.168 38.524 40.0513 38.2534 39.818C37.9827 39.5753 37.8474 39.1693 37.8474 38.6V30.2H38.9674V38.278ZM44.4552 38.278C44.4552 38.6047 44.5112 38.838 44.6232 38.978C44.7352 39.118 44.8939 39.188 45.0992 39.188C45.2206 39.188 45.3512 39.1787 45.4912 39.16C45.6312 39.1413 45.7899 39.0993 45.9672 39.034L46.0932 39.916C45.9439 39.9907 45.7339 40.0513 45.4632 40.098C45.2019 40.1447 44.9732 40.168 44.7772 40.168C44.3572 40.168 44.0119 40.0513 43.7412 39.818C43.4706 39.5753 43.3352 39.1693 43.3352 38.6V30.2H44.4552V38.278ZM55.6962 37.536L56.0882 38.88H56.1582L56.4662 37.522L57.8242 33H58.9582L56.8862 39.286C56.7275 39.7433 56.5688 40.1867 56.4102 40.616C56.2608 41.0453 56.0928 41.428 55.9062 41.764C55.7195 42.1 55.5095 42.366 55.2762 42.562C55.0428 42.7673 54.7722 42.87 54.4642 42.87C54.1282 42.87 53.8528 42.8233 53.6382 42.73L53.8342 41.764C53.9555 41.8107 54.0722 41.834 54.1842 41.834C54.4455 41.834 54.6975 41.694 54.9402 41.414C55.1828 41.1433 55.3835 40.672 55.5422 40L52.7282 33H54.0162L55.6962 37.536ZM61.0172 36.5C61.0172 35.3147 61.2786 34.4093 61.8012 33.784C62.3332 33.1493 63.0939 32.832 64.0832 32.832C64.6059 32.832 65.0586 32.9207 65.4412 33.098C65.8332 33.266 66.1552 33.5133 66.4072 33.84C66.6592 34.1573 66.8459 34.5447 66.9672 35.002C67.0886 35.45 67.1492 35.9493 67.1492 36.5C67.1492 37.6853 66.8832 38.5953 66.3512 39.23C65.8286 39.8553 65.0726 40.168 64.0832 40.168C63.5606 40.168 63.1032 40.084 62.7112 39.916C62.3286 39.7387 62.0112 39.4913 61.7592 39.174C61.5072 38.8473 61.3206 38.46 61.1992 38.012C61.0779 37.5547 61.0172 37.0507 61.0172 36.5ZM62.1792 36.5C62.1792 36.8547 62.2119 37.1953 62.2772 37.522C62.3519 37.8487 62.4639 38.1333 62.6132 38.376C62.7626 38.6187 62.9586 38.8147 63.2012 38.964C63.4439 39.1133 63.7379 39.188 64.0832 39.188C65.3526 39.1973 65.9872 38.3013 65.9872 36.5C65.9872 36.136 65.9499 35.7907 65.8752 35.464C65.8099 35.1373 65.7026 34.8527 65.5532 34.61C65.4039 34.3673 65.2079 34.176 64.9652 34.036C64.7226 33.8867 64.4286 33.812 64.0832 33.812C62.8139 33.8027 62.1792 34.6987 62.1792 36.5ZM71.3231 33V36.99C71.3231 37.354 71.3418 37.676 71.3791 37.956C71.4258 38.2267 71.5004 38.4553 71.6031 38.642C71.7058 38.8193 71.8458 38.9547 72.0231 39.048C72.2004 39.1413 72.4244 39.188 72.6951 39.188C72.9471 39.188 73.1711 39.1507 73.3671 39.076C73.5631 38.992 73.7358 38.88 73.8851 38.74C74.0438 38.6 74.1791 38.4413 74.2911 38.264C74.4124 38.0773 74.5104 37.8813 74.5851 37.676V33H75.7051V38.012C75.7051 38.348 75.7144 38.698 75.7331 39.062C75.7611 39.4167 75.8031 39.7293 75.8591 40H75.0891L74.8091 38.894H74.7391C74.5244 39.258 74.2351 39.5613 73.8711 39.804C73.5071 40.0467 73.0451 40.168 72.4851 40.168C72.1118 40.168 71.7804 40.1213 71.4911 40.028C71.2111 39.944 70.9731 39.79 70.7771 39.566C70.5904 39.342 70.4458 39.0433 70.3431 38.67C70.2498 38.2873 70.2031 37.8067 70.2031 37.228V33H71.3231ZM82.566 34.078C82.286 33.9847 82.02 33.938 81.768 33.938C81.3666 33.938 81.0493 34.05 80.816 34.274C80.5826 34.4887 80.438 34.764 80.382 35.1V40H79.262V33H80.046L80.256 33.854H80.312C80.4893 33.5367 80.6993 33.294 80.942 33.126C81.194 32.9487 81.5113 32.86 81.894 32.86C82.1646 32.86 82.468 32.9067 82.804 33L82.566 34.078ZM89.6282 33H90.7202V31.614L91.8402 31.292V33H93.7442V33.98H91.8402V37.858C91.8402 38.3433 91.9009 38.6887 92.0222 38.894C92.1435 39.09 92.3489 39.188 92.6382 39.188C92.8809 39.188 93.0862 39.1647 93.2542 39.118C93.4222 39.062 93.6089 38.992 93.8142 38.908L94.0662 39.762C93.8142 39.8833 93.5389 39.9813 93.2402 40.056C92.9415 40.1307 92.6195 40.168 92.2742 40.168C91.7049 40.168 91.3035 40.0093 91.0702 39.692C90.8369 39.3653 90.7202 38.824 90.7202 38.068V33.98H89.6282V33ZM96.9344 33H98.0544V40H96.9344V33ZM96.6964 30.872C96.6964 30.6573 96.7664 30.4753 96.9064 30.326C97.0557 30.1673 97.2424 30.088 97.4664 30.088C97.6904 30.088 97.8817 30.1673 98.0404 30.326C98.199 30.4753 98.2784 30.6573 98.2784 30.872C98.2784 31.0867 98.199 31.264 98.0404 31.404C97.8817 31.544 97.6904 31.614 97.4664 31.614C97.2424 31.614 97.0557 31.544 96.9064 31.404C96.7664 31.264 96.6964 31.0867 96.6964 30.872ZM105.944 40V36.038C105.944 35.6647 105.926 35.3427 105.888 35.072C105.86 34.792 105.8 34.5587 105.706 34.372C105.613 34.1853 105.478 34.0453 105.3 33.952C105.132 33.8587 104.908 33.812 104.628 33.812C104.199 33.812 103.84 33.9427 103.55 34.204C103.27 34.4653 103.074 34.792 102.962 35.184V40H101.842V33H102.626L102.836 33.854H102.892C103.144 33.5553 103.434 33.3127 103.76 33.126C104.096 32.93 104.53 32.832 105.062 32.832C105.51 32.832 105.874 32.9207 106.154 33.098C106.444 33.266 106.668 33.5647 106.826 33.994C107.041 33.63 107.335 33.3453 107.708 33.14C108.091 32.9347 108.52 32.832 108.996 32.832C109.388 32.832 109.72 32.8787 109.99 32.972C110.261 33.056 110.485 33.21 110.662 33.434C110.84 33.658 110.966 33.9613 111.04 34.344C111.124 34.7267 111.166 35.212 111.166 35.8V40H110.046V35.786C110.046 35.45 110.028 35.1607 109.99 34.918C109.962 34.666 109.897 34.4607 109.794 34.302C109.701 34.134 109.566 34.0127 109.388 33.938C109.22 33.854 108.996 33.812 108.716 33.812C108.25 33.812 107.886 33.9427 107.624 34.204C107.363 34.4653 107.176 34.8387 107.064 35.324V40H105.944ZM114.842 33H115.962V40H114.842V33ZM114.604 30.872C114.604 30.6573 114.674 30.4753 114.814 30.326C114.963 30.1673 115.15 30.088 115.374 30.088C115.598 30.088 115.789 30.1673 115.948 30.326C116.106 30.4753 116.186 30.6573 116.186 30.872C116.186 31.0867 116.106 31.264 115.948 31.404C115.789 31.544 115.598 31.614 115.374 31.614C115.15 31.614 114.963 31.544 114.814 31.404C114.674 31.264 114.604 31.0867 114.604 30.872ZM124.244 40V36.01C124.244 35.282 124.137 34.736 123.922 34.372C123.717 33.9987 123.334 33.812 122.774 33.812C122.279 33.812 121.869 33.9473 121.542 34.218C121.225 34.4793 121.001 34.8107 120.87 35.212V40H119.75V33H120.534L120.744 33.854H120.8C121.024 33.5553 121.323 33.3127 121.696 33.126C122.079 32.93 122.531 32.832 123.054 32.832C123.437 32.832 123.773 32.8787 124.062 32.972C124.351 33.056 124.589 33.21 124.776 33.434C124.972 33.658 125.117 33.9613 125.21 34.344C125.313 34.7173 125.364 35.1933 125.364 35.772V40H124.244ZM134.168 40.322C134.168 41.2273 133.925 41.8947 133.44 42.324C132.964 42.7533 132.255 42.968 131.312 42.968C130.752 42.968 130.299 42.9307 129.954 42.856C129.618 42.7907 129.329 42.702 129.086 42.59L129.38 41.638C129.595 41.722 129.833 41.8013 130.094 41.876C130.355 41.9507 130.696 41.988 131.116 41.988C131.508 41.988 131.825 41.9507 132.068 41.876C132.32 41.8107 132.521 41.694 132.67 41.526C132.819 41.3673 132.922 41.1573 132.978 40.896C133.034 40.644 133.062 40.3407 133.062 39.986V39.314H133.006C132.819 39.5847 132.581 39.7947 132.292 39.944C132.003 40.084 131.625 40.154 131.158 40.154C130.215 40.154 129.52 39.86 129.072 39.272C128.633 38.684 128.414 37.7693 128.414 36.528C128.414 35.3333 128.699 34.428 129.268 33.812C129.837 33.1867 130.677 32.874 131.788 32.874C132.32 32.874 132.773 32.916 133.146 33C133.529 33.084 133.869 33.182 134.168 33.294V40.322ZM131.354 39.174C131.83 39.174 132.203 39.0573 132.474 38.824C132.745 38.5813 132.936 38.208 133.048 37.704V34.12C132.675 33.9427 132.199 33.854 131.62 33.854C130.985 33.854 130.486 34.0687 130.122 34.498C129.758 34.9273 129.576 35.5993 129.576 36.514C129.576 36.906 129.609 37.2653 129.674 37.592C129.739 37.9187 129.842 38.1987 129.982 38.432C130.122 38.6653 130.304 38.8473 130.528 38.978C130.752 39.1087 131.027 39.174 131.354 39.174ZM147.352 40V36.01C147.352 35.282 147.245 34.736 147.03 34.372C146.825 33.9987 146.442 33.812 145.882 33.812C145.387 33.812 144.977 33.9473 144.65 34.218C144.333 34.4793 144.109 34.8107 143.978 35.212V40H142.858V33H143.642L143.852 33.854H143.908C144.132 33.5553 144.431 33.3127 144.804 33.126C145.187 32.93 145.639 32.832 146.162 32.832C146.545 32.832 146.881 32.8787 147.17 32.972C147.459 33.056 147.697 33.21 147.884 33.434C148.08 33.658 148.225 33.9613 148.318 34.344C148.421 34.7173 148.472 35.1933 148.472 35.772V40H147.352ZM157.024 39.44C156.744 39.664 156.39 39.8413 155.96 39.972C155.54 40.1027 155.092 40.168 154.616 40.168C154.084 40.168 153.622 40.084 153.23 39.916C152.838 39.7387 152.516 39.4913 152.264 39.174C152.012 38.8473 151.826 38.46 151.704 38.012C151.583 37.564 151.522 37.06 151.522 36.5C151.522 35.3053 151.788 34.3953 152.32 33.77C152.852 33.1447 153.613 32.832 154.602 32.832C154.92 32.832 155.237 32.8693 155.554 32.944C155.872 33.0093 156.156 33.14 156.408 33.336C156.66 33.532 156.866 33.812 157.024 34.176C157.183 34.5307 157.262 35.002 157.262 35.59C157.262 35.898 157.234 36.2387 157.178 36.612H152.684C152.684 37.0227 152.726 37.3867 152.81 37.704C152.894 38.0213 153.025 38.292 153.202 38.516C153.38 38.7307 153.608 38.8987 153.888 39.02C154.178 39.132 154.528 39.188 154.938 39.188C155.256 39.188 155.573 39.132 155.89 39.02C156.208 38.908 156.446 38.7773 156.604 38.628L157.024 39.44ZM154.616 33.812C154.066 33.812 153.622 33.9567 153.286 34.246C152.96 34.5353 152.764 35.03 152.698 35.73H156.17C156.17 35.0207 156.035 34.526 155.764 34.246C155.494 33.9567 155.111 33.812 154.616 33.812ZM165.383 39.44C165.103 39.664 164.749 39.8413 164.319 39.972C163.899 40.1027 163.451 40.168 162.975 40.168C162.443 40.168 161.981 40.084 161.589 39.916C161.197 39.7387 160.875 39.4913 160.623 39.174C160.371 38.8473 160.185 38.46 160.063 38.012C159.942 37.564 159.881 37.06 159.881 36.5C159.881 35.3053 160.147 34.3953 160.679 33.77C161.211 33.1447 161.972 32.832 162.961 32.832C163.279 32.832 163.596 32.8693 163.913 32.944C164.231 33.0093 164.515 33.14 164.767 33.336C165.019 33.532 165.225 33.812 165.383 34.176C165.542 34.5307 165.621 35.002 165.621 35.59C165.621 35.898 165.593 36.2387 165.537 36.612H161.043C161.043 37.0227 161.085 37.3867 161.169 37.704C161.253 38.0213 161.384 38.292 161.561 38.516C161.739 38.7307 161.967 38.8987 162.247 39.02C162.537 39.132 162.887 39.188 163.297 39.188C163.615 39.188 163.932 39.132 164.249 39.02C164.567 38.908 164.805 38.7773 164.963 38.628L165.383 39.44ZM162.975 33.812C162.425 33.812 161.981 33.9567 161.645 34.246C161.319 34.5353 161.123 35.03 161.057 35.73H164.529C164.529 35.0207 164.394 34.526 164.123 34.246C163.853 33.9567 163.47 33.812 162.975 33.812ZM174.159 37.592C174.159 38.068 174.163 38.502 174.173 38.894C174.182 39.2767 174.224 39.6547 174.299 40.028H173.543L173.263 39.034H173.207C173.02 39.3607 172.749 39.6313 172.395 39.846C172.04 40.0607 171.625 40.168 171.149 40.168C170.215 40.168 169.52 39.874 169.063 39.286C168.615 38.698 168.391 37.7787 168.391 36.528C168.391 35.3333 168.671 34.428 169.231 33.812C169.8 33.1867 170.579 32.874 171.569 32.874C171.914 32.874 172.185 32.8927 172.381 32.93C172.586 32.9673 172.805 33.028 173.039 33.112V30.2H174.159V37.592ZM171.331 39.188C171.807 39.188 172.185 39.0667 172.465 38.824C172.745 38.572 172.936 38.194 173.039 37.69V34.218C172.871 34.0873 172.679 33.994 172.465 33.938C172.25 33.882 171.965 33.854 171.611 33.854C170.967 33.854 170.463 34.0687 170.099 34.498C169.735 34.918 169.553 35.5947 169.553 36.528C169.553 36.9107 169.581 37.2653 169.637 37.592C169.702 37.9187 169.805 38.1987 169.945 38.432C170.085 38.6653 170.267 38.852 170.491 38.992C170.724 39.1227 171.004 39.188 171.331 39.188ZM180.796 38.096C180.796 37.816 180.712 37.5967 180.544 37.438C180.376 37.2793 180.166 37.1487 179.914 37.046C179.671 36.934 179.401 36.8313 179.102 36.738C178.813 36.6353 178.542 36.5093 178.29 36.36C178.047 36.2013 177.842 36.0007 177.674 35.758C177.506 35.5153 177.422 35.1887 177.422 34.778C177.422 34.106 177.613 33.616 177.996 33.308C178.379 32.9907 178.911 32.832 179.592 32.832C180.096 32.832 180.516 32.8787 180.852 32.972C181.197 33.056 181.496 33.1587 181.748 33.28L181.482 34.204C181.267 34.1013 181.006 34.0127 180.698 33.938C180.399 33.854 180.077 33.812 179.732 33.812C179.321 33.812 179.018 33.882 178.822 34.022C178.635 34.162 178.542 34.4047 178.542 34.75C178.542 34.9927 178.626 35.184 178.794 35.324C178.962 35.4547 179.167 35.576 179.41 35.688C179.662 35.7907 179.933 35.8933 180.222 35.996C180.521 36.0987 180.791 36.234 181.034 36.402C181.286 36.57 181.496 36.7847 181.664 37.046C181.832 37.298 181.916 37.634 181.916 38.054C181.916 38.3527 181.865 38.6327 181.762 38.894C181.669 39.1553 181.519 39.3793 181.314 39.566C181.109 39.7527 180.852 39.8973 180.544 40C180.245 40.112 179.891 40.168 179.48 40.168C178.948 40.168 178.495 40.1167 178.122 40.014C177.749 39.9113 177.436 39.79 177.184 39.65L177.52 38.698C177.735 38.8193 178.015 38.9313 178.36 39.034C178.705 39.1367 179.055 39.188 179.41 39.188C179.811 39.188 180.143 39.1087 180.404 38.95C180.665 38.7913 180.796 38.5067 180.796 38.096Z" fill="white"/>
</svg>
