<svg width="282" height="124" viewBox="0 0 282 124" fill="none" xmlns="http://www.w3.org/2000/svg">
<path d="M0.256104 98.052C1.2641 97.86 2.3681 97.716 3.5681 97.62C4.7921 97.5 6.0041 97.44 7.2041 97.44C8.4521 97.44 9.7001 97.548 10.9481 97.764C12.2201 97.956 13.3601 98.364 14.3681 98.988C15.3761 99.588 16.1921 100.44 16.8161 101.544C17.4641 102.624 17.7881 104.04 17.7881 105.792C17.7881 107.376 17.5121 108.72 16.9601 109.824C16.4081 110.904 15.6761 111.792 14.7641 112.488C13.8521 113.184 12.8081 113.688 11.6321 114C10.4801 114.312 9.2801 114.468 8.0321 114.468C7.9121 114.468 7.7201 114.468 7.4561 114.468C7.1921 114.468 6.9161 114.468 6.6281 114.468C6.3401 114.444 6.0521 114.42 5.7641 114.396C5.5001 114.372 5.3081 114.348 5.1881 114.324V123H0.256104V98.052ZM7.6001 101.688C7.1201 101.688 6.6641 101.712 6.2321 101.76C5.8001 101.784 5.4521 101.82 5.1881 101.868V110.04C5.2841 110.064 5.4281 110.088 5.6201 110.112C5.8121 110.136 6.0161 110.16 6.2321 110.184C6.4481 110.184 6.6521 110.184 6.8441 110.184C7.0601 110.184 7.2161 110.184 7.3121 110.184C7.9601 110.184 8.5961 110.124 9.2201 110.004C9.8681 109.884 10.4441 109.668 10.9481 109.356C11.4521 109.02 11.8481 108.564 12.1361 107.988C12.4481 107.412 12.6041 106.656 12.6041 105.72C12.6041 104.928 12.4601 104.28 12.1721 103.776C11.8841 103.248 11.5001 102.828 11.0201 102.516C10.5641 102.204 10.0361 101.988 9.4361 101.868C8.8361 101.748 8.2241 101.688 7.6001 101.688ZM23.187 106.044C24.147 105.612 25.287 105.276 26.607 105.036C27.927 104.772 29.307 104.64 30.747 104.64C31.995 104.64 33.039 104.796 33.879 105.108C34.719 105.396 35.379 105.816 35.859 106.368C36.363 106.92 36.711 107.58 36.903 108.348C37.119 109.116 37.227 109.98 37.227 110.94C37.227 111.996 37.191 113.064 37.119 114.144C37.047 115.2 36.999 116.244 36.975 117.276C36.975 118.308 37.011 119.316 37.083 120.3C37.155 121.26 37.335 122.172 37.623 123.036H33.807L33.051 120.552H32.871C32.391 121.296 31.719 121.944 30.855 122.496C30.015 123.024 28.923 123.288 27.579 123.288C26.739 123.288 25.983 123.168 25.311 122.928C24.639 122.664 24.063 122.304 23.583 121.848C23.103 121.368 22.731 120.816 22.467 120.192C22.203 119.544 22.071 118.824 22.071 118.032C22.071 116.928 22.311 116.004 22.791 115.26C23.295 114.492 24.003 113.88 24.915 113.424C25.851 112.944 26.955 112.62 28.227 112.452C29.523 112.26 30.963 112.2 32.547 112.272C32.715 110.928 32.619 109.968 32.259 109.392C31.899 108.792 31.095 108.492 29.847 108.492C28.911 108.492 27.915 108.588 26.859 108.78C25.827 108.972 24.975 109.224 24.303 109.536L23.187 106.044ZM29.127 119.436C30.063 119.436 30.807 119.232 31.359 118.824C31.911 118.392 32.319 117.936 32.583 117.456V115.116C31.839 115.044 31.119 115.032 30.423 115.08C29.751 115.128 29.151 115.236 28.623 115.404C28.095 115.572 27.675 115.812 27.363 116.124C27.051 116.436 26.895 116.832 26.895 117.312C26.895 117.984 27.087 118.512 27.471 118.896C27.879 119.256 28.431 119.436 29.127 119.436ZM49.2544 105V115.224C49.2544 116.688 49.4224 117.744 49.7584 118.392C50.1184 119.04 50.8024 119.364 51.8104 119.364C52.6984 119.364 53.4304 119.1 54.0064 118.572C54.6064 118.044 55.0504 117.396 55.3384 116.628V105H60.0184V117.528C60.0184 118.512 60.0664 119.484 60.1624 120.444C60.2584 121.38 60.4024 122.232 60.5944 123H57.0664L56.2384 120.336H56.0944C55.5424 121.248 54.7744 122.004 53.7904 122.604C52.8064 123.204 51.6424 123.504 50.2984 123.504C49.3864 123.504 48.5704 123.384 47.8504 123.144C47.1304 122.904 46.5304 122.508 46.0504 121.956C45.5704 121.404 45.1984 120.66 44.9344 119.724C44.6944 118.788 44.5744 117.612 44.5744 116.196V105H49.2544ZM75.1774 118.032C75.1774 117.552 74.9734 117.168 74.5654 116.88C74.1574 116.592 73.6534 116.328 73.0534 116.088C72.4534 115.848 71.7934 115.608 71.0734 115.368C70.3534 115.104 69.6934 114.756 69.0934 114.324C68.4934 113.868 67.9894 113.304 67.5814 112.632C67.1734 111.936 66.9694 111.048 66.9694 109.968C66.9694 108.192 67.4974 106.836 68.5534 105.9C69.6094 104.964 71.1334 104.496 73.1254 104.496C74.4934 104.496 75.7294 104.64 76.8334 104.928C77.9374 105.216 78.8014 105.54 79.4254 105.9L78.3814 109.284C77.8294 109.068 77.1334 108.84 76.2934 108.6C75.4534 108.36 74.6014 108.24 73.7374 108.24C72.3454 108.24 71.6494 108.78 71.6494 109.86C71.6494 110.292 71.8534 110.64 72.2614 110.904C72.6694 111.168 73.1734 111.42 73.7734 111.66C74.3734 111.876 75.0334 112.116 75.7534 112.38C76.4734 112.644 77.1334 112.992 77.7334 113.424C78.3334 113.832 78.8374 114.372 79.2454 115.044C79.6534 115.716 79.8574 116.58 79.8574 117.636C79.8574 119.46 79.2694 120.9 78.0934 121.956C76.9414 122.988 75.2014 123.504 72.8734 123.504C71.6014 123.504 70.4014 123.336 69.2734 123C68.1694 122.688 67.2694 122.316 66.5734 121.884L67.8694 118.392C68.4214 118.704 69.1534 119.016 70.0654 119.328C70.9774 119.616 71.9134 119.76 72.8734 119.76C73.5694 119.76 74.1214 119.628 74.5294 119.364C74.9614 119.1 75.1774 118.656 75.1774 118.032ZM100.913 121.452C100.193 122.028 99.2089 122.52 97.9609 122.928C96.7369 123.312 95.4289 123.504 94.0369 123.504C91.1329 123.504 89.0089 122.664 87.6649 120.984C86.3209 119.28 85.6489 116.952 85.6489 114C85.6489 110.832 86.4049 108.456 87.9169 106.872C89.4289 105.288 91.5529 104.496 94.2889 104.496C95.2009 104.496 96.0889 104.616 96.9529 104.856C97.8169 105.096 98.5849 105.492 99.2569 106.044C99.9289 106.596 100.469 107.34 100.877 108.276C101.285 109.212 101.489 110.376 101.489 111.768C101.489 112.272 101.453 112.812 101.381 113.388C101.333 113.964 101.249 114.564 101.129 115.188H90.3289C90.4009 116.7 90.7849 117.84 91.4809 118.608C92.2009 119.376 93.3529 119.76 94.9369 119.76C95.9209 119.76 96.7969 119.616 97.5649 119.328C98.3569 119.016 98.9569 118.704 99.3649 118.392L100.913 121.452ZM94.2169 108.24C92.9929 108.24 92.0809 108.612 91.4809 109.356C90.9049 110.076 90.5569 111.048 90.4369 112.272H97.1329C97.2289 110.976 97.0249 109.98 96.5209 109.284C96.0409 108.588 95.2729 108.24 94.2169 108.24ZM122.36 116.016C122.36 115.104 122.504 114.24 122.792 113.424C123.104 112.584 123.524 111.804 124.052 111.084C124.604 110.364 125.252 109.692 125.996 109.068C126.74 108.444 127.544 107.892 128.408 107.412C127.808 106.62 127.316 105.816 126.932 105C126.548 104.184 126.356 103.32 126.356 102.408C126.356 101.808 126.464 101.208 126.68 100.608C126.92 99.984 127.28 99.432 127.76 98.952C128.264 98.448 128.912 98.052 129.704 97.764C130.496 97.452 131.456 97.296 132.584 97.296C133.688 97.296 134.624 97.428 135.392 97.692C136.184 97.956 136.82 98.304 137.3 98.736C137.78 99.168 138.128 99.66 138.344 100.212C138.56 100.764 138.668 101.328 138.668 101.904C138.668 102.888 138.32 103.92 137.624 105C136.928 106.056 135.74 107.076 134.06 108.06C134.9 109.356 135.74 110.544 136.58 111.624C137.42 112.704 138.356 113.772 139.388 114.828C139.94 114.228 140.432 113.484 140.864 112.596C141.32 111.684 141.716 110.76 142.052 109.824L145.436 111.624C145.292 112.056 145.088 112.536 144.824 113.064C144.584 113.568 144.308 114.084 143.996 114.612C143.708 115.14 143.408 115.644 143.096 116.124C142.784 116.58 142.496 116.976 142.232 117.312C143 118.008 143.672 118.56 144.248 118.968C144.824 119.352 145.412 119.712 146.012 120.048L143.528 123.504C142.856 123.192 142.16 122.784 141.44 122.28C140.744 121.752 140.048 121.152 139.352 120.48C138.488 121.272 137.408 121.98 136.112 122.604C134.816 123.204 133.22 123.504 131.324 123.504C130.076 123.504 128.9 123.336 127.796 123C126.716 122.664 125.768 122.172 124.952 121.524C124.16 120.876 123.524 120.096 123.044 119.184C122.588 118.248 122.36 117.192 122.36 116.016ZM136.544 117.636C135.32 116.364 134.204 115.104 133.196 113.856C132.188 112.584 131.312 111.384 130.568 110.256C129.416 111.144 128.54 112.008 127.94 112.848C127.34 113.664 127.04 114.588 127.04 115.62C127.04 116.844 127.484 117.804 128.372 118.5C129.284 119.196 130.472 119.544 131.936 119.544C132.896 119.544 133.796 119.352 134.636 118.968C135.476 118.56 136.112 118.116 136.544 117.636ZM131.036 102.624C131.036 103.632 131.468 104.712 132.332 105.864C133.268 105.264 133.94 104.7 134.348 104.172C134.78 103.644 134.996 103.14 134.996 102.66C134.996 102.084 134.828 101.628 134.492 101.292C134.18 100.956 133.664 100.788 132.944 100.788C132.296 100.788 131.816 100.956 131.504 101.292C131.192 101.628 131.036 102.072 131.036 102.624ZM166.725 97.8H171.405V106.44H171.549C172.053 105.864 172.701 105.408 173.493 105.072C174.285 104.736 175.161 104.568 176.121 104.568C178.281 104.568 179.925 105.312 181.053 106.8C182.205 108.264 182.781 110.508 182.781 113.532C182.781 116.772 181.977 119.232 180.369 120.912C178.785 122.592 176.601 123.432 173.817 123.432C172.281 123.432 170.877 123.3 169.605 123.036C168.333 122.796 167.373 122.52 166.725 122.208V97.8ZM174.753 108.528C173.889 108.528 173.181 108.756 172.629 109.212C172.101 109.644 171.693 110.28 171.405 111.12V118.968C171.789 119.16 172.197 119.292 172.629 119.364C173.085 119.436 173.565 119.472 174.069 119.472C175.341 119.472 176.301 119.016 176.949 118.104C177.621 117.168 177.957 115.692 177.957 113.676C177.957 110.244 176.889 108.528 174.753 108.528ZM199.562 109.392C198.818 109.128 198.146 108.996 197.546 108.996C196.706 108.996 195.998 109.224 195.422 109.68C194.87 110.112 194.498 110.676 194.306 111.372V123H189.626V105H193.262L193.802 107.376H193.946C194.354 106.488 194.906 105.804 195.602 105.324C196.298 104.844 197.114 104.604 198.05 104.604C198.674 104.604 199.382 104.736 200.174 105L199.562 109.392ZM220.247 121.452C219.527 122.028 218.543 122.52 217.295 122.928C216.071 123.312 214.763 123.504 213.371 123.504C210.467 123.504 208.343 122.664 206.999 120.984C205.655 119.28 204.983 116.952 204.983 114C204.983 110.832 205.739 108.456 207.251 106.872C208.763 105.288 210.887 104.496 213.623 104.496C214.535 104.496 215.423 104.616 216.287 104.856C217.151 105.096 217.919 105.492 218.591 106.044C219.263 106.596 219.803 107.34 220.211 108.276C220.619 109.212 220.823 110.376 220.823 111.768C220.823 112.272 220.787 112.812 220.715 113.388C220.667 113.964 220.583 114.564 220.463 115.188H209.663C209.735 116.7 210.119 117.84 210.815 118.608C211.535 119.376 212.687 119.76 214.271 119.76C215.255 119.76 216.131 119.616 216.899 119.328C217.691 119.016 218.291 118.704 218.699 118.392L220.247 121.452ZM213.551 108.24C212.327 108.24 211.415 108.612 210.815 109.356C210.239 110.076 209.891 111.048 209.771 112.272H216.467C216.563 110.976 216.359 109.98 215.855 109.284C215.375 108.588 214.607 108.24 213.551 108.24ZM227.621 106.044C228.581 105.612 229.721 105.276 231.041 105.036C232.361 104.772 233.741 104.64 235.181 104.64C236.429 104.64 237.473 104.796 238.313 105.108C239.153 105.396 239.813 105.816 240.293 106.368C240.797 106.92 241.145 107.58 241.337 108.348C241.553 109.116 241.661 109.98 241.661 110.94C241.661 111.996 241.625 113.064 241.553 114.144C241.481 115.2 241.433 116.244 241.409 117.276C241.409 118.308 241.445 119.316 241.517 120.3C241.589 121.26 241.769 122.172 242.057 123.036H238.241L237.485 120.552H237.305C236.825 121.296 236.153 121.944 235.289 122.496C234.449 123.024 233.357 123.288 232.013 123.288C231.173 123.288 230.417 123.168 229.745 122.928C229.073 122.664 228.497 122.304 228.017 121.848C227.537 121.368 227.165 120.816 226.901 120.192C226.637 119.544 226.505 118.824 226.505 118.032C226.505 116.928 226.745 116.004 227.225 115.26C227.729 114.492 228.437 113.88 229.349 113.424C230.285 112.944 231.389 112.62 232.661 112.452C233.957 112.26 235.397 112.2 236.981 112.272C237.149 110.928 237.053 109.968 236.693 109.392C236.333 108.792 235.529 108.492 234.281 108.492C233.345 108.492 232.349 108.588 231.293 108.78C230.261 108.972 229.409 109.224 228.737 109.536L227.621 106.044ZM233.561 119.436C234.497 119.436 235.241 119.232 235.793 118.824C236.345 118.392 236.753 117.936 237.017 117.456V115.116C236.273 115.044 235.553 115.032 234.857 115.08C234.185 115.128 233.585 115.236 233.057 115.404C232.529 115.572 232.109 115.812 231.797 116.124C231.485 116.436 231.329 116.832 231.329 117.312C231.329 117.984 231.521 118.512 231.905 118.896C232.313 119.256 232.865 119.436 233.561 119.436ZM247.316 105H249.8V101.616L254.48 100.284V105H258.872V108.96H254.48V115.872C254.48 117.12 254.6 118.02 254.84 118.572C255.104 119.1 255.584 119.364 256.28 119.364C256.76 119.364 257.168 119.316 257.504 119.22C257.864 119.124 258.26 118.98 258.692 118.788L259.52 122.388C258.872 122.7 258.116 122.964 257.252 123.18C256.388 123.396 255.512 123.504 254.624 123.504C252.968 123.504 251.744 123.084 250.952 122.244C250.184 121.38 249.8 119.976 249.8 118.032V108.96H247.316V105ZM276.355 123V112.776C276.355 111.312 276.151 110.256 275.743 109.608C275.335 108.96 274.591 108.636 273.511 108.636C272.719 108.636 271.987 108.912 271.315 109.464C270.667 109.992 270.235 110.676 270.019 111.516V123H265.339V97.8H270.019V107.016H270.163C270.739 106.248 271.447 105.636 272.287 105.18C273.127 104.724 274.195 104.496 275.491 104.496C276.403 104.496 277.207 104.616 277.903 104.856C278.599 105.096 279.175 105.492 279.631 106.044C280.111 106.596 280.459 107.352 280.675 108.312C280.915 109.248 281.035 110.412 281.035 111.804V123H276.355Z" fill="white"/>
<path d="M132 6C132 2.68629 129.314 0 126 0C122.686 0 120 2.68629 120 6V44C120 47.3137 122.686 50 126 50C129.314 50 132 47.3137 132 44V6Z" fill="white"/>
<path d="M160 6C160 2.68629 157.314 0 154 0C150.686 0 148 2.68629 148 6V44C148 47.3137 150.686 50 154 50C157.314 50 160 47.3137 160 44V6Z" fill="white"/>
</svg>
