<svg width="179" height="151" viewBox="0 0 179 151" fill="none" xmlns="http://www.w3.org/2000/svg">
<path d="M70.6833 0C70.4528 0 70.2799 0.0572776 70.107 0.114555C65.0934 2.00472 60.5409 4.98315 56.7375 8.7062C52.9917 12.4865 49.9951 17.0115 48.0934 21.9946C47.8053 22.7965 48.2087 23.6557 48.9578 23.942C49.707 24.2284 50.629 23.8275 50.9172 23.0829C52.7036 18.5007 55.4121 14.3194 58.9273 10.8827C62.385 7.38881 66.5917 4.69677 71.2019 2.92116C72.0087 2.63477 72.3545 1.71833 72.0663 0.97372C71.8358 0.400943 71.2595 0 70.6833 0ZM110.215 0C109.351 0 108.717 0.744609 108.717 1.5465C108.717 2.17655 109.121 2.69205 109.697 2.92116C114.307 4.69677 118.514 7.38881 121.971 10.8827C125.487 14.3767 128.195 18.5007 129.924 23.0829C130.212 23.8848 131.076 24.2857 131.883 23.9993C132.69 23.7129 133.093 22.8538 132.805 22.0519C132.805 22.0519 132.805 22.0519 132.805 21.9946C130.904 17.0115 127.907 12.4865 124.161 8.7062C120.358 4.92588 115.805 2.00472 110.792 0.114555C110.619 0.0572776 110.446 0 110.215 0ZM90.4494 11.341C86.8765 11.341 83.8799 14.2621 83.8799 17.8706C83.8799 19.4171 84.4562 20.7918 85.3782 21.9373C75.2934 24.2284 67.8019 33.1637 67.8019 43.8747V61.3443H67.2256C63.768 61.3443 60.9443 64.1509 60.9443 67.5876C60.9443 71.0243 63.768 73.8309 67.2256 73.8309H78.6934V74.1172C78.6934 80.1314 83.6494 85.0573 89.7002 85.0573C95.7511 85.0573 100.707 80.1314 100.707 74.1172V73.8309H113.731C117.188 73.8309 120.012 71.0243 120.012 67.5876C120.012 64.1509 117.131 61.2871 113.673 61.2871H113.097V43.8174C113.097 33.1065 105.605 24.1712 95.5206 21.8801C96.4426 20.7918 97.0189 19.3598 97.0189 17.8133C97.0189 14.2621 94.0799 11.341 90.4494 11.341ZM74.7172 12.2001C74.5443 12.2001 74.3138 12.2574 74.1409 12.3147C71.0867 13.5748 68.2629 15.465 65.9002 17.8133C63.5375 20.1617 61.6358 22.9683 60.368 26.004C60.0223 26.7487 60.368 27.6651 61.1172 28.0088C61.8663 28.3524 62.7884 28.0088 63.1341 27.2642C63.1341 27.2069 63.1917 27.2069 63.1917 27.1496C64.2867 24.4575 65.9578 21.9946 68.0324 19.9326C70.107 17.8706 72.585 16.2096 75.2934 15.1213C76.1002 14.8349 76.446 13.9185 76.1579 13.1739C75.9273 12.5438 75.3511 12.2001 74.7172 12.2001ZM106.182 12.2001C105.317 12.2001 104.683 12.8875 104.683 13.7466C104.683 14.3194 105.029 14.8922 105.605 15.1213C108.314 16.2096 110.792 17.8706 112.866 19.9326C114.941 21.9946 116.612 24.4575 117.707 27.1496C118.053 27.9515 118.917 28.2951 119.724 28.0088C120.531 27.6651 120.877 26.8059 120.588 26.004C119.321 22.9111 117.419 20.1044 115.056 17.7561C112.693 15.4077 109.87 13.5175 106.758 12.2574C106.585 12.2574 106.354 12.2001 106.182 12.2001ZM90.4494 14.3767C92.4087 14.3767 93.9646 15.9232 93.9646 17.8706C93.9646 19.8181 92.4087 21.3073 90.4494 21.3073C88.4901 21.3073 86.9341 19.7608 86.9341 17.8133C86.9918 15.9232 88.4901 14.3767 90.4494 14.3767ZM90.4494 24.343C101.341 24.343 110.043 32.9919 110.043 43.8174V61.2871H70.8562V43.8174C70.8562 32.9919 79.5579 24.343 90.4494 24.343ZM67.2256 64.3228H69.3002H111.541H113.615C115.402 64.3228 116.843 65.7547 116.843 67.5303C116.843 69.3059 115.402 70.7379 113.615 70.7379H67.2256C65.4392 70.7379 63.9985 69.3632 63.9985 67.5303C63.9985 65.6974 65.4392 64.3228 67.2256 64.3228ZM81.7477 73.7736H97.6528V74.06C97.6528 78.4704 94.1375 81.9643 89.7002 81.9643C85.2629 81.9643 81.7477 78.4704 81.7477 74.06V73.7736Z" fill="white"/>
<path d="M20.1188 122.192H12.7748V143H7.84277V122.192H0.462769V117.8H20.1188V122.192ZM26.5757 125H31.2557V143H26.5757V125ZM25.8917 119.924C25.8917 119.228 26.1437 118.64 26.6477 118.16C27.1757 117.656 27.8957 117.404 28.8077 117.404C29.7197 117.404 30.4517 117.656 31.0037 118.16C31.5797 118.64 31.8677 119.228 31.8677 119.924C31.8677 120.62 31.5797 121.208 31.0037 121.688C30.4517 122.144 29.7197 122.372 28.8077 122.372C27.8957 122.372 27.1757 122.144 26.6477 121.688C26.1437 121.208 25.8917 120.62 25.8917 119.924ZM49.6717 143V133.208C49.6717 131.552 49.5157 130.376 49.2037 129.68C48.8917 128.984 48.2437 128.636 47.2597 128.636C46.4437 128.636 45.7837 128.864 45.2797 129.32C44.7757 129.752 44.3917 130.316 44.1277 131.012V143H39.4477V125H43.0837L43.6237 127.376H43.7677C44.3197 126.608 45.0157 125.936 45.8557 125.36C46.7197 124.784 47.8237 124.496 49.1677 124.496C50.3197 124.496 51.2557 124.736 51.9757 125.216C52.7197 125.672 53.2957 126.452 53.7037 127.556C54.2557 126.62 54.9637 125.876 55.8277 125.324C56.6917 124.772 57.7357 124.496 58.9597 124.496C59.9677 124.496 60.8197 124.616 61.5157 124.856C62.2357 125.096 62.8117 125.516 63.2437 126.116C63.6997 126.692 64.0357 127.472 64.2517 128.456C64.4677 129.44 64.5757 130.688 64.5757 132.2V143H59.8957V132.884C59.8957 131.468 59.7397 130.412 59.4277 129.716C59.1397 128.996 58.4797 128.636 57.4477 128.636C56.6077 128.636 55.9357 128.864 55.4317 129.32C54.9517 129.776 54.5917 130.4 54.3517 131.192V143H49.6717ZM86.4165 141.452C85.6965 142.028 84.7125 142.52 83.4645 142.928C82.2405 143.312 80.9325 143.504 79.5405 143.504C76.6365 143.504 74.5125 142.664 73.1685 140.984C71.8245 139.28 71.1525 136.952 71.1525 134C71.1525 130.832 71.9085 128.456 73.4205 126.872C74.9325 125.288 77.0565 124.496 79.7925 124.496C80.7045 124.496 81.5925 124.616 82.4565 124.856C83.3205 125.096 84.0885 125.492 84.7605 126.044C85.4325 126.596 85.9725 127.34 86.3805 128.276C86.7885 129.212 86.9925 130.376 86.9925 131.768C86.9925 132.272 86.9565 132.812 86.8845 133.388C86.8365 133.964 86.7525 134.564 86.6325 135.188H75.8325C75.9045 136.7 76.2885 137.84 76.9845 138.608C77.7045 139.376 78.8565 139.76 80.4405 139.76C81.4245 139.76 82.3005 139.616 83.0685 139.328C83.8605 139.016 84.4605 138.704 84.8685 138.392L86.4165 141.452ZM79.7205 128.24C78.4965 128.24 77.5845 128.612 76.9845 129.356C76.4085 130.076 76.0605 131.048 75.9405 132.272H82.6365C82.7325 130.976 82.5285 129.98 82.0245 129.284C81.5445 128.588 80.7765 128.24 79.7205 128.24ZM101.35 138.032C101.35 137.552 101.146 137.168 100.738 136.88C100.33 136.592 99.8257 136.328 99.2257 136.088C98.6257 135.848 97.9657 135.608 97.2457 135.368C96.5257 135.104 95.8657 134.756 95.2657 134.324C94.6657 133.868 94.1617 133.304 93.7537 132.632C93.3457 131.936 93.1417 131.048 93.1417 129.968C93.1417 128.192 93.6697 126.836 94.7257 125.9C95.7817 124.964 97.3057 124.496 99.2977 124.496C100.666 124.496 101.902 124.64 103.006 124.928C104.11 125.216 104.974 125.54 105.598 125.9L104.554 129.284C104.002 129.068 103.306 128.84 102.466 128.6C101.626 128.36 100.774 128.24 99.9097 128.24C98.5177 128.24 97.8217 128.78 97.8217 129.86C97.8217 130.292 98.0257 130.64 98.4337 130.904C98.8417 131.168 99.3457 131.42 99.9457 131.66C100.546 131.876 101.206 132.116 101.926 132.38C102.646 132.644 103.306 132.992 103.906 133.424C104.506 133.832 105.01 134.372 105.418 135.044C105.826 135.716 106.03 136.58 106.03 137.636C106.03 139.46 105.442 140.9 104.266 141.956C103.114 142.988 101.374 143.504 99.0457 143.504C97.7737 143.504 96.5737 143.336 95.4457 143C94.3417 142.688 93.4417 142.316 92.7457 141.884L94.0417 138.392C94.5937 138.704 95.3257 139.016 96.2377 139.328C97.1497 139.616 98.0857 139.76 99.0457 139.76C99.7417 139.76 100.294 139.628 100.702 139.364C101.134 139.1 101.35 138.656 101.35 138.032ZM129.891 125V135.224C129.891 136.688 130.059 137.744 130.395 138.392C130.755 139.04 131.439 139.364 132.447 139.364C133.335 139.364 134.067 139.1 134.643 138.572C135.243 138.044 135.687 137.396 135.975 136.628V125H140.655V137.528C140.655 138.512 140.703 139.484 140.799 140.444C140.895 141.38 141.039 142.232 141.231 143H137.703L136.875 140.336H136.731C136.179 141.248 135.411 142.004 134.427 142.604C133.443 143.204 132.279 143.504 130.935 143.504C130.023 143.504 129.207 143.384 128.487 143.144C127.767 142.904 127.167 142.508 126.687 141.956C126.207 141.404 125.835 140.66 125.571 139.724C125.331 138.788 125.211 137.612 125.211 136.196V125H129.891ZM148.362 125H151.782L152.322 127.16H152.466C153.09 126.248 153.822 125.576 154.662 125.144C155.526 124.712 156.57 124.496 157.794 124.496C160.05 124.496 161.742 125.216 162.87 126.656C163.998 128.072 164.562 130.364 164.562 133.532C164.562 135.068 164.382 136.46 164.022 137.708C163.662 138.932 163.122 139.976 162.402 140.84C161.706 141.704 160.842 142.364 159.81 142.82C158.802 143.276 157.638 143.504 156.318 143.504C155.574 143.504 154.962 143.444 154.482 143.324C154.002 143.228 153.522 143.06 153.042 142.82V150.2H148.362V125ZM156.39 128.456C155.478 128.456 154.758 128.684 154.23 129.14C153.726 129.596 153.33 130.28 153.042 131.192V138.68C153.378 138.944 153.738 139.16 154.122 139.328C154.53 139.472 155.058 139.544 155.706 139.544C157.05 139.544 158.058 139.076 158.73 138.14C159.402 137.18 159.738 135.608 159.738 133.424C159.738 131.84 159.474 130.616 158.946 129.752C158.418 128.888 157.566 128.456 156.39 128.456ZM172.951 117.8H177.775V129.644L176.839 135.512H173.887L172.951 129.644V117.8ZM172.447 140.624C172.447 139.784 172.711 139.124 173.239 138.644C173.767 138.14 174.463 137.888 175.327 137.888C176.239 137.888 176.959 138.14 177.487 138.644C178.015 139.124 178.279 139.784 178.279 140.624C178.279 141.464 178.015 142.136 177.487 142.64C176.959 143.144 176.239 143.396 175.327 143.396C174.463 143.396 173.767 143.144 173.239 142.64C172.711 142.136 172.447 141.464 172.447 140.624Z" fill="white"/>
</svg>
