<svg width="78" height="16" viewBox="0 0 78 16" fill="none" xmlns="http://www.w3.org/2000/svg">
<path d="M0.772617 5H2.37262V15H0.772617V5ZM0.432617 1.96C0.432617 1.65333 0.532617 1.39333 0.732617 1.18C0.945951 0.953329 1.21262 0.839996 1.53262 0.839996C1.85262 0.839996 2.12595 0.953329 2.35262 1.18C2.57929 1.39333 2.69262 1.65333 2.69262 1.96C2.69262 2.26667 2.57929 2.52 2.35262 2.72C2.12595 2.92 1.85262 3.02 1.53262 3.02C1.21262 3.02 0.945951 2.92 0.732617 2.72C0.532617 2.52 0.432617 2.26667 0.432617 1.96ZM14.2041 15V9.3C14.2041 8.26 14.0508 7.48 13.7441 6.96C13.4508 6.42667 12.9041 6.16 12.1041 6.16C11.3975 6.16 10.8108 6.35333 10.3441 6.74C9.89085 7.11333 9.57085 7.58667 9.38418 8.16V15H7.78418V5H8.90418L9.20418 6.22H9.28418C9.60418 5.79333 10.0308 5.44667 10.5641 5.18C11.1108 4.9 11.7575 4.76 12.5041 4.76C13.0508 4.76 13.5308 4.82667 13.9441 4.96C14.3575 5.08 14.6975 5.3 14.9641 5.62C15.2441 5.94 15.4508 6.37333 15.5841 6.92C15.7308 7.45333 15.8041 8.13333 15.8041 8.96V15H14.2041ZM19.4016 5H20.9616V3.02L22.5616 2.56V5H25.2816V6.4H22.5616V11.94C22.5616 12.6333 22.6483 13.1267 22.8216 13.42C22.995 13.7 23.2883 13.84 23.7016 13.84C24.0483 13.84 24.3416 13.8067 24.5816 13.74C24.8216 13.66 25.0883 13.56 25.3816 13.44L25.7416 14.66C25.3816 14.8333 24.9883 14.9733 24.5616 15.08C24.135 15.1867 23.675 15.24 23.1816 15.24C22.3683 15.24 21.795 15.0133 21.4616 14.56C21.1283 14.0933 20.9616 13.32 20.9616 12.24V6.4H19.4016V5ZM36.5841 14.2C36.1841 14.52 35.6775 14.7733 35.0641 14.96C34.4641 15.1467 33.8241 15.24 33.1441 15.24C32.3841 15.24 31.7241 15.12 31.1641 14.88C30.6041 14.6267 30.1441 14.2733 29.7841 13.82C29.4241 13.3533 29.1575 12.8 28.9841 12.16C28.8108 11.52 28.7241 10.8 28.7241 10C28.7241 8.29333 29.1041 6.99333 29.8641 6.1C30.6241 5.20667 31.7108 4.76 33.1241 4.76C33.5775 4.76 34.0308 4.81333 34.4841 4.92C34.9375 5.01333 35.3441 5.2 35.7041 5.48C36.0641 5.76 36.3575 6.16 36.5841 6.68C36.8108 7.18667 36.9241 7.86 36.9241 8.7C36.9241 9.14 36.8841 9.62667 36.8041 10.16H30.3841C30.3841 10.7467 30.4441 11.2667 30.5641 11.72C30.6841 12.1733 30.8708 12.56 31.1241 12.88C31.3775 13.1867 31.7041 13.4267 32.1041 13.6C32.5175 13.76 33.0175 13.84 33.6041 13.84C34.0575 13.84 34.5108 13.76 34.9641 13.6C35.4175 13.44 35.7575 13.2533 35.9841 13.04L36.5841 14.2ZM33.1441 6.16C32.3575 6.16 31.7241 6.36667 31.2441 6.78C30.7775 7.19333 30.4975 7.9 30.4041 8.9H35.3641C35.3641 7.88667 35.1708 7.18 34.7841 6.78C34.3975 6.36667 33.8508 6.16 33.1441 6.16ZM46.1604 6.54C45.7604 6.40667 45.3804 6.34 45.0204 6.34C44.4471 6.34 43.9937 6.5 43.6604 6.82C43.3271 7.12667 43.1204 7.52 43.0404 8V15H41.4404V5H42.5604L42.8604 6.22H42.9404C43.1937 5.76667 43.4937 5.42 43.8404 5.18C44.2004 4.92667 44.6537 4.8 45.2004 4.8C45.5871 4.8 46.0204 4.86667 46.5004 5L46.1604 6.54ZM53.1173 10.86L53.6773 12.76H53.6973L54.1973 10.82L56.4373 5H58.1573L53.8973 15.22H53.2173L48.8773 5H50.7173L53.1173 10.86ZM61.7257 5.74C62.2324 5.43333 62.819 5.20667 63.4857 5.06C64.1657 4.91333 64.8724 4.84 65.6057 4.84C66.299 4.84 66.8524 4.93333 67.2657 5.12C67.6924 5.30667 68.0124 5.55333 68.2257 5.86C68.4524 6.15333 68.599 6.48 68.6657 6.84C68.7457 7.2 68.7857 7.56 68.7857 7.92C68.7857 8.72 68.7657 9.5 68.7257 10.26C68.6857 11.02 68.6657 11.74 68.6657 12.42C68.6657 12.9133 68.6857 13.38 68.7257 13.82C68.7657 14.26 68.839 14.6667 68.9457 15.04H67.7657L67.3457 13.64H67.2457C67.1257 13.8267 66.9724 14.0133 66.7857 14.2C66.6124 14.3733 66.399 14.5333 66.1457 14.68C65.8924 14.8133 65.599 14.9267 65.2657 15.02C64.9324 15.1133 64.5524 15.16 64.1257 15.16C63.699 15.16 63.299 15.0933 62.9257 14.96C62.5657 14.8267 62.2524 14.64 61.9857 14.4C61.719 14.1467 61.5057 13.8467 61.3457 13.5C61.199 13.1533 61.1257 12.76 61.1257 12.32C61.1257 11.7333 61.2457 11.2467 61.4857 10.86C61.7257 10.46 62.059 10.1467 62.4857 9.92C62.9257 9.68 63.4457 9.51333 64.0457 9.42C64.659 9.31333 65.3324 9.26 66.0657 9.26C66.2524 9.26 66.4324 9.26 66.6057 9.26C66.7924 9.26 66.979 9.27333 67.1657 9.3C67.2057 8.9 67.2257 8.54 67.2257 8.22C67.2257 7.48667 67.079 6.97333 66.7857 6.68C66.4924 6.38667 65.959 6.24 65.1857 6.24C64.959 6.24 64.7124 6.26 64.4457 6.3C64.1924 6.32667 63.9257 6.37333 63.6457 6.44C63.379 6.49333 63.119 6.56667 62.8657 6.66C62.6257 6.74 62.4124 6.83333 62.2257 6.94L61.7257 5.74ZM64.5657 13.76C64.939 13.76 65.2724 13.7133 65.5657 13.62C65.859 13.5133 66.1124 13.3867 66.3257 13.24C66.539 13.08 66.7124 12.9067 66.8457 12.72C66.9924 12.5333 67.099 12.3533 67.1657 12.18V10.52C66.979 10.5067 66.7857 10.5 66.5857 10.5C66.399 10.4867 66.2124 10.48 66.0257 10.48C65.6124 10.48 65.2057 10.5067 64.8057 10.56C64.419 10.6 64.0724 10.6867 63.7657 10.82C63.4724 10.94 63.2324 11.1133 63.0457 11.34C62.8724 11.5533 62.7857 11.8267 62.7857 12.16C62.7857 12.6267 62.9524 13.0133 63.2857 13.32C63.619 13.6133 64.0457 13.76 64.5657 13.76ZM75.5876 12.54C75.5876 13.0067 75.6676 13.34 75.8276 13.54C75.9876 13.74 76.2142 13.84 76.5076 13.84C76.6809 13.84 76.8676 13.8267 77.0676 13.8C77.2676 13.7733 77.4942 13.7133 77.7476 13.62L77.9276 14.88C77.7142 14.9867 77.4142 15.0733 77.0276 15.14C76.6542 15.2067 76.3276 15.24 76.0476 15.24C75.4476 15.24 74.9542 15.0733 74.5676 14.74C74.1809 14.3933 73.9876 13.8133 73.9876 13V0.999995H75.5876V12.54Z" fill="#222222"/>
</svg>
